<svg width="12" height="12" viewBox="0 0 12 12" fill="none" xmlns="http://www.w3.org/2000/svg">
<path d="M10.25 1.2625H7.475C7.35 1.2625 7.225 1.2125 7.125 1.1125L6.125 0.1125C5.975 -0.0375 5.75 -0.0375 5.6 0.1125L4.6 1.1125C4.5 1.2125 4.375 1.2625 4.25 1.2625H1.5C0.675 1.2625 0 1.9375 0 2.7625V10.2625C0 11.0875 0.675 11.7625 1.5 11.7625H10.25C11.075 11.7625 11.75 11.0875 11.75 10.2625V2.7625C11.75 1.9375 11.075 1.2625 10.25 1.2625ZM2.9 11.0125C2.75 11.0125 2.625 10.8625 2.65 10.7125C2.825 9.9125 3.525 9.3125 4.35 9.3125H7.35C8.2 9.3125 8.9 9.9125 9.05 10.7125C9.075 10.8625 8.95 11.0125 8.8 11.0125H2.9ZM11 10.2625C11 10.6875 10.675 11.0125 10.25 11.0125H10.1C9.975 11.0125 9.875 10.9125 9.85 10.7875C9.7 9.5375 8.65 8.5625 7.375 8.5625H4.375C3.1 8.5625 2.025 9.5375 1.9 10.7875C1.875 10.9125 1.775 11.0125 1.65 11.0125H1.5C1.075 11.0125 0.75 10.6875 0.75 10.2625V2.7625C0.75 2.3375 1.075 2.0125 1.5 2.0125H4.275C4.6 2.0125 4.925 1.8875 5.15 1.6375L5.875 0.9125L6.6 1.6375C6.825 1.8625 7.15 2.0125 7.475 2.0125H10.25C10.675 2.0125 11 2.3375 11 2.7625V10.2625ZM5.875 3.0125C4.55 3.0125 3.475 4.0875 3.475 5.4125C3.475 6.7375 4.55 7.8125 5.875 7.8125C7.2 7.8125 8.275 6.7375 8.275 5.4125C8.275 4.0875 7.2 3.0125 5.875 3.0125ZM5.875 7.0375C4.975 7.0375 4.225 6.3125 4.225 5.3875C4.225 4.4875 4.95 3.7375 5.875 3.7375C6.8 3.7375 7.525 4.4625 7.525 5.3875C7.525 6.2875 6.775 7.0375 5.875 7.0375Z" fill="#8E8E8E"/>
</svg>
